<?xml version="1.0" encoding="UTF-8"?> <svg xmlns="http://www.w3.org/2000/svg" width="194.04" height="61.768" viewBox="0 0 194.04 61.768"> <g id="svgGroup" stroke-linecap="round" fill-rule="evenodd" font-size="9pt" stroke="#ffffff" stroke-width="0.25mm" fill="#ffffff" style="stroke:#ffffff;stroke-width:0.25mm;fill:#ffffff"> <path d="M 35.648 57.319 A 0.956 0.956 0 0 0 35.448 57.904 Q 35.681 58.37 36.091 58.806 A 5.72 5.72 0 0 0 36.736 59.388 A 8.746 8.746 0 0 0 37.579 59.968 A 10.897 10.897 0 0 0 38.836 60.62 A 12.523 12.523 0 0 0 39.45 60.872 A 14.168 14.168 0 0 0 41.44 61.46 A 14.067 14.067 0 0 0 41.702 61.515 A 12.629 12.629 0 0 0 44.184 61.768 A 8.446 8.446 0 0 0 45.258 61.696 A 11.492 11.492 0 0 0 46.396 61.488 Q 47.6 61.208 48.86 60.648 Q 50.12 60.088 51.324 59.276 Q 52.528 58.464 53.48 57.4 Q 55.496 55.16 57.092 52.724 A 43.029 43.029 0 0 0 57.683 51.797 A 48.155 48.155 0 0 0 60.06 47.46 Q 61.432 44.632 62.748 41.3 Q 64.064 37.968 65.576 33.936 A 218.121 218.121 0 0 1 65.818 33.277 Q 66.191 32.269 66.618 31.141 A 386.136 386.136 0 0 1 67.564 28.672 A 102.827 102.827 0 0 1 67.62 28.528 Q 68.466 26.349 69.711 23.433 A 299.086 299.086 0 0 1 70.616 21.336 Q 70.287 21.007 69.565 20.708 A 8.67 8.67 0 0 0 68.992 20.496 A 9.57 9.57 0 0 0 67.711 20.17 A 12.975 12.975 0 0 0 66.304 19.992 A 35.626 35.626 0 0 1 65.12 22.774 A 44.441 44.441 0 0 1 63.14 26.46 A 42.853 42.853 0 0 1 62.605 27.334 A 38.15 38.15 0 0 1 58.744 32.48 Q 57.68 33.656 56.504 34.804 Q 55.328 35.952 54.236 36.82 A 34.822 34.822 0 0 1 53.736 37.21 Q 53.33 37.521 52.959 37.785 A 18.737 18.737 0 0 1 52.276 38.248 A 6.643 6.643 0 0 1 51.978 38.43 Q 51.556 38.672 51.235 38.759 A 1.274 1.274 0 0 1 50.904 38.808 A 0.264 0.264 0 0 1 50.867 38.806 A 0.181 0.181 0 0 1 50.736 38.724 A 0.174 0.174 0 0 1 50.717 38.681 Q 50.68 38.565 50.68 38.248 A 7.495 7.495 0 0 1 50.711 37.571 Q 50.781 36.808 51.002 35.966 A 14.322 14.322 0 0 1 51.548 34.328 A 27.759 27.759 0 0 1 52.27 32.674 A 33.699 33.699 0 0 1 53.788 29.848 Q 55.16 27.552 56.952 25.34 A 44.398 44.398 0 0 1 58.3 23.752 A 36.432 36.432 0 0 1 60.564 21.42 A 25.212 25.212 0 0 1 62.258 19.96 A 18.875 18.875 0 0 1 64.148 18.648 A 10.193 10.193 0 0 1 65.074 18.149 Q 65.632 17.887 66.142 17.746 A 4.198 4.198 0 0 1 67.256 17.584 A 4.983 4.983 0 0 1 67.534 17.592 Q 67.88 17.611 68.176 17.68 A 2.55 2.55 0 0 1 68.824 17.92 Q 68.551 16.726 68.08 15.958 A 3.227 3.227 0 0 0 67.396 15.148 A 3.024 3.024 0 0 0 66.527 14.655 Q 65.684 14.336 64.456 14.336 A 9.74 9.74 0 0 0 62.772 14.485 A 11.615 11.615 0 0 0 60.34 15.204 A 18.992 18.992 0 0 0 59.033 15.804 A 21.956 21.956 0 0 0 56.196 17.528 Q 54.152 18.984 52.332 20.944 Q 50.512 22.904 49.168 25.116 A 26.695 26.695 0 0 0 49.002 25.393 A 24.102 24.102 0 0 0 47.012 29.624 A 15.376 15.376 0 0 0 46.647 30.801 A 12.826 12.826 0 0 0 46.2 34.104 A 10.548 10.548 0 0 0 46.205 34.438 A 9.304 9.304 0 0 0 46.536 36.652 A 8.861 8.861 0 0 0 46.703 37.185 A 7.538 7.538 0 0 0 47.488 38.808 A 7.464 7.464 0 0 0 47.731 39.161 A 6.391 6.391 0 0 0 48.916 40.404 A 4.557 4.557 0 0 0 49.069 40.521 A 3.854 3.854 0 0 0 50.68 41.216 A 7.68 7.68 0 0 0 51.191 40.996 Q 51.463 40.868 51.768 40.704 A 18.229 18.229 0 0 0 52.444 40.32 A 35.899 35.899 0 0 0 52.703 40.164 A 39.721 39.721 0 0 0 54.544 38.976 Q 55.608 38.248 56.588 37.436 A 33.319 33.319 0 0 0 57.03 37.063 Q 57.385 36.759 57.693 36.476 A 18.238 18.238 0 0 0 58.24 35.952 A 74.178 74.178 0 0 1 56.829 40.543 A 56.684 56.684 0 0 1 54.88 45.472 A 46.048 46.048 0 0 1 54.761 45.733 Q 52.903 49.763 50.652 52.584 A 21.698 21.698 0 0 1 48.521 54.906 A 15.924 15.924 0 0 1 45.696 57.036 Q 43.064 58.576 40.152 58.576 A 12.292 12.292 0 0 1 39.872 58.573 Q 39.431 58.563 39.088 58.52 A 2.394 2.394 0 0 1 39.06 58.516 A 2.494 2.494 0 0 1 38.22 58.24 Q 37.8 58.016 37.324 57.68 A 7.608 7.608 0 0 1 36.991 57.429 Q 36.813 57.289 36.615 57.119 A 18.479 18.479 0 0 1 36.176 56.728 A 7.61 7.61 0 0 0 36.031 56.877 A 6.555 6.555 0 0 0 35.672 57.288 A 1.199 1.199 0 0 0 35.648 57.319 Z M 129.787 14.793 A 4.845 4.845 0 0 0 128.352 14.056 A 0.804 0.804 0 0 0 128.17 14.199 Q 127.698 14.659 126.56 16.42 A 71.27 71.27 0 0 0 126.14 17.08 Q 124.927 19.005 123.542 21.936 A 93.578 93.578 0 0 0 122.248 24.808 Q 121.296 26.992 120.512 29.176 A 58.977 58.977 0 0 0 119.959 30.787 A 49.284 49.284 0 0 0 119.196 33.348 A 68.92 68.92 0 0 0 119.179 33.411 Q 118.659 35.362 118.356 36.96 Q 118.154 38.026 118.084 38.85 A 9.549 9.549 0 0 0 118.048 39.648 Q 118.328 40.936 118.888 42.14 Q 119.448 43.344 120.624 44.016 A 2.624 2.624 0 0 0 120.879 43.845 Q 121.286 43.539 121.774 42.971 A 12.76 12.76 0 0 0 122.22 42.42 A 69.455 69.455 0 0 0 122.828 41.616 Q 123.529 40.674 124.376 39.48 A 98.896 98.896 0 0 1 126.069 37.203 A 80.039 80.039 0 0 1 128.66 33.992 A 60.831 60.831 0 0 1 130.31 32.136 A 72.67 72.67 0 0 1 133.392 29.008 A 21.644 21.644 0 0 1 134.113 28.318 Q 134.705 27.779 135.265 27.358 A 10.344 10.344 0 0 1 136.416 26.6 A 78.257 78.257 0 0 1 136.749 26.415 Q 137.675 25.902 137.88 25.828 A 0.17 0.17 0 0 1 137.928 25.816 A 179.041 179.041 0 0 0 137.366 27.153 Q 137.101 27.79 136.869 28.365 A 90.058 90.058 0 0 0 136.36 29.652 Q 135.744 31.248 135.408 32.396 Q 135.072 33.544 134.96 34.384 Q 134.902 34.817 134.874 35.206 A 9.635 9.635 0 0 0 134.848 35.896 A 12.986 12.986 0 0 0 134.862 36.513 A 11.116 11.116 0 0 0 135.072 38.22 A 5.455 5.455 0 0 0 135.232 38.826 A 4.371 4.371 0 0 0 135.884 40.096 A 3.721 3.721 0 0 0 136.597 40.813 A 4.715 4.715 0 0 0 137.508 41.356 A 4.331 4.331 0 0 0 138.087 41.572 Q 138.539 41.706 139.077 41.771 A 9.098 9.098 0 0 0 140.168 41.832 A 2.457 2.457 0 0 0 140.362 41.824 Q 140.582 41.807 140.825 41.751 A 4.68 4.68 0 0 0 141.316 41.608 Q 141.96 41.384 142.632 41.048 Q 143.304 40.712 143.92 40.32 Q 144.536 39.928 144.984 39.536 A 1.249 1.249 0 0 0 144.976 39.4 Q 144.963 39.283 144.929 39.153 A 2.508 2.508 0 0 0 144.844 38.892 A 1.462 1.462 0 0 0 144.765 38.719 Q 144.714 38.624 144.654 38.555 A 0.565 0.565 0 0 0 144.48 38.416 A 1.295 1.295 0 0 0 144.352 38.423 Q 144.107 38.447 143.772 38.561 A 5.644 5.644 0 0 0 143.416 38.696 A 3.953 3.953 0 0 1 142.9 38.872 A 3.033 3.033 0 0 1 142.128 38.976 Q 141.887 38.976 141.685 38.926 A 1.18 1.18 0 0 1 141.092 38.584 A 0.673 0.673 0 0 1 141.037 38.517 Q 140.801 38.186 140.745 37.356 A 8.419 8.419 0 0 1 140.728 36.792 Q 140.728 35.816 140.923 34.715 A 17.275 17.275 0 0 1 141.344 32.928 Q 141.96 30.8 142.884 28.756 A 57.614 57.614 0 0 1 143.467 27.506 A 49.181 49.181 0 0 1 144.788 24.948 Q 145.431 23.791 145.99 22.958 A 13.903 13.903 0 0 1 146.552 22.176 A 14.118 14.118 0 0 1 146.664 22.05 Q 147.366 21.266 147.756 21.084 Q 148.176 20.888 148.176 20.776 Q 147.616 19.712 146.636 18.732 A 3.269 3.269 0 0 0 145.518 17.99 A 3.558 3.558 0 0 0 144.2 17.752 A 4.285 4.285 0 0 0 143.493 17.813 Q 142.926 17.908 142.315 18.15 A 8.66 8.66 0 0 0 141.232 18.676 A 20.572 20.572 0 0 0 140.22 19.292 A 23.923 23.923 0 0 0 138.012 20.916 Q 136.416 22.232 134.96 23.716 Q 134.05 24.644 133.293 25.429 A 171.876 171.876 0 0 0 132.44 26.32 Q 132.062 26.698 131.464 27.375 A 60.418 60.418 0 0 0 131.04 27.86 Q 130.144 28.896 129.108 30.156 Q 128.072 31.416 126.98 32.676 Q 125.888 33.936 124.992 34.888 A 4.69 4.69 0 0 1 125.021 34.695 Q 125.236 33.454 126.196 31.612 A 90.588 90.588 0 0 1 127.008 30.09 A 110.648 110.648 0 0 1 128.52 27.412 Q 129.808 25.2 131.096 23.072 A 40.618 40.618 0 0 0 131.852 21.772 Q 132.581 20.46 133 19.432 Q 132.384 17.584 131.096 16.044 A 9.166 9.166 0 0 0 130.817 15.725 Q 130.314 15.178 129.787 14.793 Z M 36.512 11.032 Q 36.512 14.112 34.972 16.912 Q 33.432 19.712 30.828 21.812 A 19.633 19.633 0 0 1 26.418 24.474 A 23.364 23.364 0 0 1 24.724 25.144 A 22.117 22.117 0 0 1 17.549 26.375 A 24.82 24.82 0 0 1 17.304 26.376 A 8.805 8.805 0 0 1 16.486 26.341 Q 15.65 26.262 15.092 26.012 A 3.724 3.724 0 0 1 14.511 25.679 Q 13.952 25.295 13.314 24.628 A 12.486 12.486 0 0 1 13.272 24.584 A 145.618 145.618 0 0 0 10.749 30.399 Q 9.601 33.219 8.715 35.792 A 87.239 87.239 0 0 0 8.708 35.812 Q 6.944 40.936 5.936 45.752 A 8.77 8.77 0 0 1 4.141 45.127 A 6.669 6.669 0 0 1 2.464 43.988 Q 1.12 42.728 0 40.824 Q 0.501 39.872 1.181 38.383 A 94.403 94.403 0 0 0 1.344 38.024 A 332.001 332.001 0 0 0 1.979 36.608 Q 2.264 35.97 2.581 35.253 A 694.51 694.51 0 0 0 3.248 33.74 A 263.396 263.396 0 0 0 4.139 31.687 Q 4.925 29.859 5.852 27.636 A 1310.902 1310.902 0 0 1 7.04 24.8 Q 7.566 23.547 8.144 22.178 A 2327.066 2327.066 0 0 1 9.352 19.32 A 1808.897 1808.897 0 0 1 9.993 17.761 Q 10.246 17.144 10.478 16.582 A 1011.42 1011.42 0 0 1 10.92 15.512 Q 11.592 13.888 12.096 12.46 Q 12.6 11.032 13.02 9.632 Q 13.44 8.232 13.888 6.552 A 34.475 34.475 0 0 0 10.468 7.839 A 29.342 29.342 0 0 0 9.044 8.512 A 23.554 23.554 0 0 0 7.253 9.514 Q 6.393 10.048 5.692 10.606 A 13.222 13.222 0 0 0 5.376 10.864 Q 4.984 10.603 4.576 10.139 A 7.048 7.048 0 0 1 4.34 9.856 A 10.515 10.515 0 0 1 3.531 8.672 A 11.887 11.887 0 0 1 3.36 8.372 Q 2.912 7.56 2.576 6.72 Q 2.296 6.02 2.211 5.437 A 3.686 3.686 0 0 1 2.184 5.208 A 16.022 16.022 0 0 1 3.755 4.26 Q 4.862 3.672 6.216 3.136 A 41.331 41.331 0 0 1 10.017 1.85 A 47.341 47.341 0 0 1 11.368 1.484 Q 14.112 0.784 17.052 0.392 Q 19.992 0 22.68 0 A 21.634 21.634 0 0 1 25.875 0.226 A 16.803 16.803 0 0 1 28.448 0.812 A 14.735 14.735 0 0 1 30.93 1.839 A 11.609 11.609 0 0 1 32.816 3.08 Q 34.608 4.536 35.56 6.552 A 10.026 10.026 0 0 1 36.473 10.05 A 12.094 12.094 0 0 1 36.512 11.032 Z M 171.016 38.98 A 30.643 30.643 0 0 0 170.8 40.096 Q 170.968 40.544 171.528 41.048 A 8.718 8.718 0 0 0 171.854 41.327 A 10.081 10.081 0 0 0 172.788 42 A 11.416 11.416 0 0 0 173.056 42.167 A 10.041 10.041 0 0 0 174.188 42.756 A 6.61 6.61 0 0 0 174.556 42.906 Q 175.026 43.079 175.392 43.12 Q 175.917 40.705 176.475 38.706 A 50.493 50.493 0 0 1 177.156 36.456 A 27.404 27.404 0 0 1 177.971 34.287 A 21.659 21.659 0 0 1 179.396 31.5 Q 180.712 29.344 182.56 27.58 A 27.828 27.828 0 0 1 182.809 27.345 Q 184.583 25.693 187.04 23.968 Q 187.6 25.592 188.776 26.964 A 10.15 10.15 0 0 0 188.887 27.091 A 8.913 8.913 0 0 0 191.464 29.12 Q 192.304 28.28 193.004 27.328 Q 193.551 26.584 193.705 26.217 A 0.825 0.825 0 0 0 193.76 26.04 Q 193.237 25.155 193.09 23.633 A 13.432 13.432 0 0 1 193.032 22.344 A 13.969 13.969 0 0 1 193.13 20.694 A 15.721 15.721 0 0 1 194.04 17.024 A 1.281 1.281 0 0 0 193.804 16.747 Q 193.652 16.612 193.443 16.501 A 2.874 2.874 0 0 0 193.032 16.324 Q 192.304 16.072 191.52 16.072 A 4.446 4.446 0 0 0 191.299 16.077 Q 190.634 16.111 190.344 16.352 A 45.902 45.902 0 0 1 189.835 17.099 A 41.064 41.064 0 0 1 186.004 21.84 Q 183.68 24.304 180.656 26.992 Q 181.391 24.752 182.115 23.015 A 30.581 30.581 0 0 1 182.98 21.112 A 23.072 23.072 0 0 1 183.5 20.132 A 19.955 19.955 0 0 1 185.64 17.024 A 3.188 3.188 0 0 0 185.45 16.822 Q 185.298 16.673 185.107 16.52 A 6.836 6.836 0 0 0 184.688 16.212 Q 184.072 15.792 183.288 15.4 Q 182.504 15.008 181.664 14.728 A 10.468 10.468 0 0 0 181.144 14.57 A 8.829 8.829 0 0 0 180.04 14.336 Q 179.368 15.008 178.808 15.988 Q 178.248 16.968 177.52 18.704 Q 176.512 21.112 175.448 24.136 Q 174.384 27.16 173.432 30.156 A 132.897 132.897 0 0 0 172.753 32.356 A 108.91 108.91 0 0 0 171.78 35.812 Q 171.299 37.641 171.016 38.98 Z M 92.008 18.032 Q 91.784 21.504 90.776 23.996 Q 89.768 26.488 87.892 28.364 A 19.162 19.162 0 0 1 85.248 30.554 A 24.164 24.164 0 0 1 83.328 31.752 A 42.095 42.095 0 0 1 80.44 33.225 Q 78.961 33.913 77.281 34.576 A 68.119 68.119 0 0 1 77.056 34.664 A 8.856 8.856 0 0 1 77.04 35.184 A 10.03 10.03 0 0 1 77.028 35.364 A 9.723 9.723 0 0 0 77 36.017 A 10.819 10.819 0 0 0 77 36.12 Q 77 36.848 77.112 37.632 Q 77.224 38.416 77.504 39.088 A 3 3 0 0 0 77.903 39.781 A 2.58 2.58 0 0 0 78.288 40.18 A 1.777 1.777 0 0 0 79.108 40.558 A 2.492 2.492 0 0 0 79.576 40.6 A 6.986 6.986 0 0 0 82.43 39.98 A 8.052 8.052 0 0 0 82.544 39.928 Q 84 39.256 85.316 38.276 Q 86.632 37.296 87.78 36.148 A 114.651 114.651 0 0 0 88.857 35.057 Q 89.364 34.536 89.81 34.063 A 74.273 74.273 0 0 0 89.824 34.048 Q 90.347 34.519 90.723 34.94 A 8.117 8.117 0 0 1 90.776 35 A 28.904 28.904 0 0 1 87.462 38.731 A 24.211 24.211 0 0 1 85.26 40.572 Q 82.864 42.341 80.665 43.09 A 11.03 11.03 0 0 1 79.576 43.4 A 11.656 11.656 0 0 1 76.868 42.774 A 8.247 8.247 0 0 1 73.556 40.572 Q 71.4 38.192 71.4 34.832 A 17.604 17.604 0 0 1 71.893 30.75 A 19.9 19.9 0 0 1 72.044 30.156 Q 72.688 27.776 73.836 25.564 Q 74.984 23.352 76.524 21.392 Q 78.064 19.432 79.828 17.976 A 16.933 16.933 0 0 1 82.191 16.33 A 14.489 14.489 0 0 1 83.468 15.68 Q 85.344 14.84 87.192 14.84 A 5.872 5.872 0 0 1 89.722 15.831 Q 90.526 16.372 91.293 17.194 A 12.903 12.903 0 0 1 92.008 18.032 Z M 169.568 18.032 Q 169.344 21.504 168.336 23.996 Q 167.328 26.488 165.452 28.364 A 19.162 19.162 0 0 1 162.808 30.554 A 24.164 24.164 0 0 1 160.888 31.752 A 42.095 42.095 0 0 1 158 33.225 Q 156.521 33.913 154.841 34.576 A 68.119 68.119 0 0 1 154.616 34.664 A 8.856 8.856 0 0 1 154.6 35.184 A 10.03 10.03 0 0 1 154.588 35.364 A 9.723 9.723 0 0 0 154.56 36.017 A 10.819 10.819 0 0 0 154.56 36.12 Q 154.56 36.848 154.672 37.632 Q 154.784 38.416 155.064 39.088 A 3 3 0 0 0 155.463 39.781 A 2.58 2.58 0 0 0 155.848 40.18 A 1.777 1.777 0 0 0 156.668 40.558 A 2.492 2.492 0 0 0 157.136 40.6 A 6.986 6.986 0 0 0 159.99 39.98 A 8.052 8.052 0 0 0 160.104 39.928 Q 161.56 39.256 162.876 38.276 Q 164.192 37.296 165.34 36.148 A 114.651 114.651 0 0 0 166.417 35.057 Q 166.924 34.536 167.37 34.063 A 74.273 74.273 0 0 0 167.384 34.048 Q 167.907 34.519 168.283 34.94 A 8.117 8.117 0 0 1 168.336 35 A 28.904 28.904 0 0 1 165.022 38.731 A 24.211 24.211 0 0 1 162.82 40.572 Q 160.424 42.341 158.225 43.09 A 11.03 11.03 0 0 1 157.136 43.4 A 11.656 11.656 0 0 1 154.428 42.774 A 8.247 8.247 0 0 1 151.116 40.572 Q 148.96 38.192 148.96 34.832 A 17.604 17.604 0 0 1 149.453 30.75 A 19.9 19.9 0 0 1 149.604 30.156 Q 150.248 27.776 151.396 25.564 Q 152.544 23.352 154.084 21.392 Q 155.624 19.432 157.388 17.976 A 16.933 16.933 0 0 1 159.751 16.33 A 14.489 14.489 0 0 1 161.028 15.68 Q 162.904 14.84 164.752 14.84 A 5.872 5.872 0 0 1 167.282 15.831 Q 168.086 16.372 168.853 17.194 A 12.903 12.903 0 0 1 169.568 18.032 Z M 98.248 42.267 A 7.503 7.503 0 0 0 101.192 43.176 Q 104.552 42.448 107.38 40.684 Q 110.208 38.92 112.252 36.344 Q 114.296 33.768 115.444 30.604 Q 116.592 27.44 116.592 23.912 Q 116.592 21.486 115.961 20.178 A 2.445 2.445 0 0 0 113.624 18.648 A 3.98 3.98 0 0 0 113.62 18.648 Q 113.342 18.648 113.12 18.676 Q 112.896 18.704 112.616 18.704 Q 110.88 15.68 109.088 14.728 Q 107.282 14.728 105.299 15.765 A 14.807 14.807 0 0 0 103.32 17.024 A 19.603 19.603 0 0 0 102.595 17.59 A 21.638 21.638 0 0 0 99.68 20.496 Q 98 22.512 96.768 24.78 Q 95.536 27.048 94.864 29.456 A 19.623 19.623 0 0 0 94.539 30.797 A 16.478 16.478 0 0 0 94.192 34.104 A 12.662 12.662 0 0 0 94.449 36.719 A 8.888 8.888 0 0 0 96.096 40.376 A 7.181 7.181 0 0 0 98.248 42.267 Z M 22.176 4.648 L 22.848 5.656 Q 22.288 6.384 21.448 7.84 Q 20.608 9.296 19.6 11.34 Q 18.592 13.384 17.388 15.904 Q 16.184 18.424 14.84 21.224 A 40.759 40.759 0 0 0 19.26 20.995 A 31.414 31.414 0 0 0 22.792 20.412 A 27.845 27.845 0 0 0 25.73 19.584 Q 27.271 19.051 28.561 18.37 A 16.71 16.71 0 0 0 28.924 18.172 A 14.981 14.981 0 0 0 31.003 16.78 A 10.894 10.894 0 0 0 32.9 14.84 A 7.259 7.259 0 0 0 34.004 12.77 A 6.365 6.365 0 0 0 34.328 10.752 A 7 7 0 0 0 34.006 8.58 A 5.68 5.68 0 0 0 32.368 6.076 Q 30.408 4.312 26.544 4.312 A 29.213 29.213 0 0 0 22.525 4.598 A 32.238 32.238 0 0 0 22.176 4.648 Z M 33.611 37.069 A 7.826 7.826 0 0 0 33.6 37.464 A 4.802 4.802 0 0 0 33.655 38.201 A 3.65 3.65 0 0 0 34.16 39.592 A 7.217 7.217 0 0 0 34.581 40.196 A 5.752 5.752 0 0 0 35.42 41.076 Q 36.12 41.664 36.792 41.944 A 10.638 10.638 0 0 0 36.961 42.013 Q 37.359 42.171 37.569 42.211 A 0.657 0.657 0 0 0 37.688 42.224 Q 37.912 42.224 37.975 41.956 A 0.944 0.944 0 0 0 37.996 41.804 A 6.201 6.201 0 0 0 38 41.734 Q 38.018 41.421 38.022 40.843 A 57.747 57.747 0 0 0 38.024 40.376 A 8.045 8.045 0 0 1 38.075 39.776 Q 38.198 38.757 38.584 37.492 Q 39.088 35.84 39.704 34.272 A 109.339 109.339 0 0 0 40.145 33.134 A 92.877 92.877 0 0 0 41.02 30.744 Q 41.608 29.064 42.308 27.496 Q 43.008 25.928 43.876 24.472 A 17.243 17.243 0 0 1 44.651 23.289 A 21.175 21.175 0 0 1 46.032 21.56 Q 44.912 19.936 43.344 19.012 Q 41.776 18.088 40.824 17.864 A 5.375 5.375 0 0 0 39.767 18.532 A 6.266 6.266 0 0 0 38.612 19.768 Q 37.688 21.056 37.044 22.428 A 24.598 24.598 0 0 0 36.529 23.602 A 19.38 19.38 0 0 0 36.008 25.032 A 42.717 42.717 0 0 0 35.832 25.598 Q 35.588 26.402 35.504 26.824 Q 35.154 28.399 34.881 29.69 A 176.998 176.998 0 0 0 34.58 31.136 A 184.861 184.861 0 0 0 34.366 32.204 Q 34.266 32.712 34.18 33.168 A 92.228 92.228 0 0 0 33.992 34.188 A 64.301 64.301 0 0 0 33.972 34.302 Q 33.832 35.096 33.75 35.682 A 18.72 18.72 0 0 0 33.684 36.204 A 17.553 17.553 0 0 0 33.639 36.663 Q 33.621 36.879 33.611 37.069 Z M 104.048 25.536 A 25.155 25.155 0 0 0 102.575 27.777 A 28.295 28.295 0 0 0 102.256 28.336 Q 101.416 29.848 100.8 31.388 Q 100.184 32.928 99.848 34.356 A 14.18 14.18 0 0 0 99.621 35.526 Q 99.536 36.104 99.517 36.62 A 7.861 7.861 0 0 0 99.512 36.904 Q 99.512 38.248 99.96 39.48 A 5.712 5.712 0 0 0 100.161 39.968 Q 100.531 40.749 100.968 40.88 Q 103.488 40.32 105.588 38.78 A 15.129 15.129 0 0 0 109.082 35.158 A 17.113 17.113 0 0 0 109.228 34.944 Q 110.768 32.648 111.636 29.736 A 21.133 21.133 0 0 0 112.473 24.745 A 24.349 24.349 0 0 0 112.504 23.52 A 20.544 20.544 0 0 0 112.488 22.67 Q 112.452 21.802 112.336 21.224 A 4.787 4.787 0 0 0 112.103 20.417 A 3.753 3.753 0 0 0 111.776 19.768 Q 109.312 20.496 107.38 22.12 A 24.06 24.06 0 0 0 104.975 24.433 A 20.639 20.639 0 0 0 104.048 25.536 Z M 88.144 19.88 Q 86.632 20.104 85.008 21.112 A 12.135 12.135 0 0 0 83.008 22.679 A 15.177 15.177 0 0 0 81.956 23.8 A 19.753 19.753 0 0 0 80.269 26.119 A 24.366 24.366 0 0 0 79.352 27.72 Q 78.176 29.96 77.504 32.536 A 27.168 27.168 0 0 0 82.179 29.6 A 22.575 22.575 0 0 0 84.952 27.02 A 13.339 13.339 0 0 0 87.024 24.041 A 10.581 10.581 0 0 0 88.144 19.88 Z M 165.704 19.88 Q 164.192 20.104 162.568 21.112 A 12.135 12.135 0 0 0 160.568 22.679 A 15.177 15.177 0 0 0 159.516 23.8 A 19.753 19.753 0 0 0 157.829 26.119 A 24.366 24.366 0 0 0 156.912 27.72 Q 155.736 29.96 155.064 32.536 A 27.168 27.168 0 0 0 159.739 29.6 A 22.575 22.575 0 0 0 162.512 27.02 A 13.339 13.339 0 0 0 164.584 24.041 A 10.581 10.581 0 0 0 165.704 19.88 Z M 44.309 12.945 A 1.999 1.999 0 0 0 44.296 13.16 Q 44.296 13.482 44.556 13.819 A 2.329 2.329 0 0 0 44.8 14.084 Q 45.304 14.56 45.976 14.672 A 2.536 2.536 0 0 1 46.003 14.62 Q 46.184 14.278 46.647 13.625 A 32.488 32.488 0 0 1 46.984 13.16 Q 47.768 12.096 48.72 10.892 Q 49.672 9.688 50.68 8.596 A 109.207 109.207 0 0 1 51.131 8.11 Q 51.832 7.36 52.304 6.888 Q 52.024 6.503 51.591 6.085 A 10.636 10.636 0 0 0 51.016 5.572 A 12.475 12.475 0 0 0 50.803 5.399 A 13.682 13.682 0 0 0 49.168 4.284 Q 48.16 3.696 47.18 3.332 Q 46.552 3.099 46.051 3.015 A 3.184 3.184 0 0 0 45.528 2.968 Q 45.192 3.864 44.856 4.956 A 30.401 30.401 0 0 0 44.676 5.564 A 26.134 26.134 0 0 0 44.296 7.056 Q 44.072 8.064 43.932 8.932 Q 43.836 9.529 43.806 9.954 A 5.001 5.001 0 0 0 43.792 10.304 Q 43.792 10.57 43.861 10.876 A 3.989 3.989 0 0 0 43.988 11.312 A 3.487 3.487 0 0 0 44.098 11.591 Q 44.259 11.947 44.464 12.152 A 9.791 9.791 0 0 0 44.397 12.437 Q 44.333 12.732 44.309 12.945 Z"></path> </g> </svg> 